<svg width="175" height="32" viewBox="0 0 175 32" fill="none" xmlns="http://www.w3.org/2000/svg">
<path d="M57.9891 9.83586V24.7687H54.6034V23.6596V17.2825C54.6034 16.6883 54.4824 16.0942 54.2406 15.5793C53.9988 15.0247 53.6763 14.5494 53.2732 14.1533C52.8702 13.7572 52.3865 13.4403 51.8222 13.2027C51.2982 12.965 50.6936 12.8462 50.0487 12.8462C49.4038 12.8462 48.8395 12.965 48.2752 13.2027C47.7109 13.4403 47.2675 13.7572 46.8241 14.1533C46.4211 14.5494 46.0986 15.0247 45.8568 15.5793C45.6149 16.1338 45.494 16.6883 45.494 17.2825C45.494 17.8766 45.6149 18.4708 45.8568 19.0253C46.0986 19.5798 46.4211 20.0551 46.8241 20.4512C47.2272 20.8473 47.7109 21.1642 48.2752 21.4019C48.8395 21.6395 49.4038 21.7584 50.0487 21.7584C50.5324 21.7584 50.9757 21.6791 51.4191 21.5603C51.8625 21.4415 52.2656 21.2434 52.6283 20.9662L54.16 23.9369C53.5554 24.2934 52.9105 24.5706 52.2253 24.7687C51.54 24.9667 50.8145 25.046 50.0487 25.046C48.9604 25.046 47.9527 24.8479 46.9854 24.4518C46.018 24.0557 45.1716 23.5012 44.4863 22.7882C43.7608 22.0752 43.1965 21.283 42.7934 20.3324C42.3904 19.3818 42.1888 18.3519 42.1888 17.2825C42.1888 16.213 42.3904 15.2228 42.8338 14.2721C43.2368 13.3215 43.8011 12.5293 44.5266 11.8163C45.2522 11.1034 46.0583 10.5488 47.0257 10.1527C47.993 9.75664 49.0007 9.55859 50.089 9.55859C50.9354 9.55859 51.7416 9.67742 52.5074 9.95469C53.2732 10.1923 53.9585 10.5488 54.6034 10.9845V9.83586H57.9891Z" fill="#2E008C"/>
<path d="M75.4823 5.91455V24.8083H72.0965V23.6993V17.3221C72.0965 16.6884 71.9756 16.1338 71.7337 15.5793C71.4919 15.0248 71.1694 14.5494 70.7664 14.1534C70.3633 13.7573 69.8796 13.4404 69.3153 13.2027C68.751 12.9651 68.1867 12.8462 67.5418 12.8462C66.8969 12.8462 66.3326 12.9651 65.7683 13.2027C65.2443 13.4404 64.7607 13.7573 64.3576 14.1534C63.9545 14.5494 63.6321 15.0248 63.3902 15.5793C63.1484 16.1338 63.0275 16.6884 63.0275 17.3221C63.0275 17.9559 63.1484 18.5104 63.3902 19.0649C63.6321 19.6195 63.9545 20.0948 64.3576 20.4909C64.7607 20.887 65.2443 21.2039 65.8086 21.4415C66.3729 21.6792 66.9372 21.798 67.5821 21.798C68.0658 21.798 68.5092 21.7188 68.9526 21.6C69.3959 21.4415 69.799 21.2831 70.1618 21.0058L71.6934 23.9765C71.0888 24.333 70.4439 24.6103 69.7587 24.8083C69.0735 25.0064 68.348 25.0856 67.5821 25.0856C66.4938 25.0856 65.4862 24.8876 64.5188 24.4915C63.5514 24.0954 62.705 23.5408 62.0198 22.8279C61.2943 22.1149 60.73 21.2831 60.3269 20.3721C59.9238 19.4214 59.7223 18.4312 59.7223 17.3617C59.7223 16.2923 59.9238 15.302 60.3269 14.3514C60.73 13.4008 61.2943 12.569 62.0198 11.8956C62.7453 11.1826 63.5918 10.6281 64.5188 10.232C65.4862 9.8359 66.4938 9.59825 67.5821 9.59825C68.4286 9.59825 69.2347 9.71707 70.0005 9.99434C70.7664 10.232 71.4516 10.5885 72.1368 11.0242V5.91455H75.4823Z" fill="#2E008C"/>
<path d="M83.8662 24.8084L76.2482 9.83594H80.037L85.7606 21.0851L91.4842 9.83594H95.273L87.655 24.8084H83.8662Z" fill="#2E008C"/>
<path d="M106.519 15.6189C106.357 15.2228 106.116 14.8267 105.833 14.5099C105.551 14.1534 105.229 13.8761 104.866 13.6384C104.503 13.4008 104.1 13.2027 103.657 13.0839C103.213 12.9651 102.77 12.8859 102.286 12.8859C101.803 12.8859 101.359 12.9651 100.916 13.0839C100.473 13.2027 100.069 13.4008 99.7067 13.6384C99.344 13.8761 99.0215 14.193 98.7394 14.5099C98.4572 14.8663 98.2557 15.2228 98.0945 15.6189H106.519ZM106.519 18.9461H98.1348C98.296 19.3422 98.5378 19.7383 98.7797 20.0552C99.0618 20.4117 99.3843 20.689 99.747 20.9266C100.11 21.1643 100.513 21.3623 100.956 21.4811C101.4 21.6 101.843 21.6792 102.327 21.6792C103.173 21.6792 103.899 21.4811 104.584 21.0851C105.269 20.689 105.793 20.174 106.196 19.5007L109.058 21.2039C108.695 21.7584 108.292 22.2733 107.808 22.7487C107.325 23.224 106.801 23.6201 106.236 23.9369C105.672 24.2538 105.027 24.5311 104.382 24.6895C103.697 24.8876 103.012 24.9668 102.327 24.9668C101.238 24.9668 100.231 24.7687 99.2634 24.3727C98.296 23.9766 97.4496 23.422 96.7643 22.709C96.0388 21.9961 95.4745 21.2039 95.0715 20.2533C94.6684 19.3026 94.4669 18.3124 94.4669 17.2429C94.4669 16.1735 94.6684 15.1832 95.0715 14.2326C95.4745 13.282 96.0388 12.4898 96.7643 11.7768C97.4899 11.0638 98.296 10.5093 99.2634 10.1132C100.231 9.71709 101.238 9.51904 102.327 9.51904C103.415 9.51904 104.423 9.71709 105.39 10.1132C106.357 10.5093 107.204 11.0638 107.889 11.7768C108.615 12.4898 109.179 13.3216 109.582 14.2326C109.985 15.1832 110.187 16.1735 110.187 17.2429C110.187 17.8371 110.106 18.3916 109.985 18.9065H108.494H106.519V18.9461Z" fill="#2E008C"/>
<path d="M120.062 9.55859C121.069 9.55859 121.996 9.75664 122.883 10.1131C123.77 10.5092 124.536 10.9845 125.181 11.6579C125.826 12.2917 126.35 13.0838 126.753 13.9553C127.156 14.8267 127.317 15.7773 127.317 16.7279V24.8083H123.931V19.2629V16.8864C123.931 16.2922 123.81 15.6981 123.568 15.1832C123.327 14.6286 123.004 14.1929 122.601 13.7968C122.198 13.4007 121.714 13.0838 121.19 12.8462C120.666 12.6085 120.062 12.4897 119.457 12.4897C118.853 12.4897 118.248 12.6085 117.724 12.8462C117.16 13.0838 116.716 13.4007 116.313 13.7968C115.91 14.1929 115.588 14.6682 115.346 15.1832C115.104 15.6981 114.983 16.2922 114.983 16.8864V19.2629V24.7687H111.597V9.83586H114.983V11.5391C115.628 10.9053 116.394 10.43 117.281 10.0735C118.127 9.71703 119.054 9.55859 120.062 9.55859Z" fill="#2E008C"/>
<path d="M132.96 9.83594H129.574V24.8084H132.96V9.83594Z" fill="#2E008C"/>
<path d="M142.472 25.046C141.465 25.046 140.497 24.848 139.611 24.4915C138.724 24.0954 137.958 23.6201 137.273 22.9467C136.628 22.313 136.104 21.5208 135.701 20.6494C135.338 19.7779 135.136 18.8273 135.136 17.8371V9.83594H138.522V15.2625V17.639C138.522 18.2332 138.643 18.8273 138.885 19.3422C139.127 19.8968 139.449 20.3721 139.852 20.7682C140.255 21.1643 140.739 21.4812 141.303 21.7188C141.868 21.9565 142.432 22.0753 143.077 22.0753C143.682 22.0753 144.286 21.9565 144.81 21.7188C145.374 21.4812 145.818 21.1643 146.261 20.7682C146.664 20.3721 146.987 19.8968 147.229 19.3422C147.47 18.7877 147.591 18.2332 147.591 17.639V15.2625V9.83594H150.977V24.848H147.591V23.0259C146.906 23.6597 146.14 24.135 145.294 24.4915C144.367 24.848 143.44 25.046 142.472 25.046Z" fill="#2E008C"/>
<path d="M169.196 9.55859C170.002 9.55859 170.727 9.71703 171.453 9.9943C172.138 10.2716 172.783 10.7073 173.307 11.2222C173.831 11.7371 174.234 12.3313 174.557 13.0442C174.839 13.7176 175 14.4702 175 15.2624V24.8479H171.574V17.1636V15.7377C171.574 15.3416 171.493 14.9455 171.332 14.589C171.171 14.2325 170.969 13.9157 170.687 13.6384C170.405 13.3611 170.083 13.1631 169.72 13.0046C169.357 12.8462 168.954 12.767 168.551 12.767C168.148 12.767 167.745 12.8462 167.382 13.0046C167.019 13.1631 166.697 13.3611 166.415 13.6384C166.132 13.9157 165.931 14.2325 165.77 14.589C165.608 14.9455 165.528 15.3416 165.528 15.7377V17.1636V24.8083H162.142V17.1636V15.7377C162.142 15.3416 162.061 14.9455 161.9 14.589C161.739 14.2325 161.537 13.9157 161.255 13.6384C160.973 13.3611 160.691 13.1631 160.288 13.0046C159.925 12.8462 159.522 12.767 159.119 12.767C158.716 12.767 158.313 12.8462 157.95 13.0046C157.587 13.1631 157.265 13.3611 156.983 13.6384C156.701 13.9157 156.499 14.2325 156.338 14.589C156.177 14.9455 156.096 15.3416 156.096 15.7377V17.1636V24.7687H152.71V9.87547H156.096V10.7865C156.58 10.3904 157.144 10.1131 157.749 9.87547C158.353 9.63781 158.998 9.55859 159.683 9.55859C160.651 9.55859 161.537 9.75664 162.344 10.1923C163.15 10.6281 163.835 11.1826 164.359 11.8956C164.883 11.1826 165.568 10.5884 166.374 10.1923C167.342 9.75664 168.228 9.55859 169.196 9.55859Z" fill="#2E008C"/>
<path d="M8.65364 11.2332H0V19.7671H8.65364V11.2332Z" fill="#FF9E1C"/>
<path d="M14.4898 8.53393H5.8764L14.4898 0V8.53393Z" fill="#26D17D"/>
<path d="M0 22.4661H8.65364L0 31V22.4661Z" fill="#96D600"/>
<path d="M31.4751 11.2332H22.8215V19.7671H31.4751V11.2332Z" fill="#00ADC7"/>
<path d="M17.3073 8.53393H25.9609L17.3073 0V8.53393Z" fill="#F2CC00"/>
<path d="M31.4349 22.4661H22.8215L31.4349 31V22.4661Z" fill="#DE1A94"/>
<path d="M20.0442 15.52C20.0442 17.8618 18.1123 19.8068 15.6973 19.8068C13.3226 19.8068 11.3503 17.9015 11.3503 15.52C11.3503 13.1781 13.2823 11.2332 15.6973 11.2332C18.1123 11.2332 20.0442 13.1384 20.0442 15.52Z" fill="#FF595C"/>
</svg>
